{"title":"Shallow Ground 2004 DVDRip Xvid LKRG","uid":10808391,"size":879228728,"categoryP":"video","categoryS":"movies","magnet":"?xt=urn:btih:c98bbed829f8bfe8ace6a73c766e1510490a43ec&amp;dn=Shallow+Ground+2004+DVDRip+Xvid+LKRG&amp;tr=udp%3A%2F%2Ftracker.openbittorrent.com%3A80&amp;tr=udp%3A%2F%2Fopen.demonii.com%3A1337&amp;tr=udp%3A%2F%2Ftracker.coppersurfer.tk%3A6969&amp;tr=udp%3A%2F%2Fexodus.desync.com%3A6969","seeders":3,"leechers":1,"uploader":".BONE.","files":2,"time":1408400258,"description":"PLOT\n\nA naked teenage boy covered in blood appears at a remote sheriff's station one year\nafter the brutal unsolved murder of a local girl. Now Sheriff Jack Shepherd, guilt ridden over the girl's...\n\nRuntime ..........: 1h 36mn\nFile Size ........: 838 MB\nResolution .......: 688 x 384 &lt;a href=&quot;\nhttp://www.imdb.com/title/tt0369918/&quot; rel=&quot;nofollow&quot; target=&quot;_NEW&quot;&gt;\nhttp://www.imdb.com/title/tt0369918/&lt;/a&gt;\nLanguage .........: English\nSubtitles ........: None\nComplete name : Shallow Ground 2004 DVDRip Xvid LKRGSGround_LKRG.avi\nFormat : AVI\nFormat/Info : Audio Video Interleave\nFile size : 838 MiB\nDuration : 1h 36mn\nOverall bit rate : 1 211 Kbps\nWriting application : VirtualDubMod 1.5.10.2 (build 2540/release)\nWriting library : VirtualDubMod build 2540/release\nVideo\nID : 0\nFormat : MPEG-4 Visual\nFormat profile : Advanced Simple@L5\nFormat settings, BVOP : 2\nFormat settings, QPel : No\nFormat settings, GMC : No warppoints\nFormat settings, Matrix : Default (H.263)\nMuxing mode : Packed bitstream\nCodec ID : XVID\nCodec ID/Hint : XviD\nDuration : 1h 36mn\nBit rate : 754 Kbps\nWidth : 688 pixels\nHeight : 384 pixels\nDisplay aspect ratio : 16:9\nFrame rate : 23.976 fps\nColor space : YUV\nChroma subsampling : 4:2:0\nBit depth : 8 bits\nScan type : Progressive\nCompression mode : Lossy\nBits/(Pixel*Frame) : 0.119\nStream size : 522 MiB (62%)\nWriting library : XviD 1.2.1 (UTC 2008-12-04)\nAudio\nID : 1\nFormat : AC-3\nFormat/Info : Audio Coding 3\nMode extension : CM (complete main)\nFormat settings, Endianness : Big\nCodec ID : 2000\nDuration : 1h 36mn\nBit rate mode : Constant\nBit rate : 448 Kbps\nChannel(s) : 6 channels\nChannel positions : Front: L C R, Side: L R, LFE\nSampling rate : 48.0 KHz\nBit depth : 16 bits\nCompression mode : Lossy\nStream size : 310 MiB (37%)\nAlignment : Split accross interleaves\nInterleave, duration : 42 ms (1.00 video frame)\nInterleave, preload duration : 500 ms","torrent":{"xt":"urn:btih:c98bbed829f8bfe8ace6a73c766e1510490a43ec","amp;dn":"Shallow+Ground+2004+DVDRip+Xvid+LKRG","amp;tr":["udp%3A%2F%2Ftracker.openbittorrent.com%3A80","udp%3A%2F%2Fopen.demonii.com%3A1337","udp%3A%2F%2Ftracker.coppersurfer.tk%3A6969","udp%3A%2F%2Fexodus.desync.com%3A6969"],"infoHash":"c98bbed829f8bfe8ace6a73c766e1510490a43ec","infoHashBuffer":{"type":"Buffer","data":[201,139,190,216,41,248,191,232,172,230,167,60,118,110,21,16,73,10,67,236]},"announce":[],"urlList":[]}}